<svg height="100%" width="100%" version="1.1" viewBox="0 -25 380 480" xmlns="http://www.w3.org/2000/svg"><g id="head" transform="translate(82.000000, 0.000000)"><g id="Head/Front/Afro" stroke="none" stroke-width="1" fill="none" fill-rule="evenodd"><path d="M61,77.7068588 C72.4289379,77.7068588 76.5854974,64.0240838 83.0786187,56.5153483 C87.7243138,51.143002 95.6530795,52.7449442 98,45.2237762 C103.901542,26.3111237 88.1061086,13 67.5,13 C46.8938914,13 33,24.6742524 30,42.2237762 C27,59.7733 40.3938914,77.7068588 61,77.7068588 Z" id="Hair-Back" fill="rgb(178, 150, 125)"></path><g id="Head" transform="translate(54.000000, 31.000000)" fill="rgb(0, 0, 0)"><path d="M8.26227388,34.4901268 C3.65436435,29.0813759 0.535634794,22.4528771 1.05677633,15.0254539 C2.55833022,-6.37502057 32.3485306,-1.66718886 38.1433414,9.13393292 C43.9381521,19.9350547 43.249578,47.3329958 35.7603014,49.2634576 C32.7735882,50.033323 26.4110012,48.1474609 19.935372,44.244306 L24,73 L0,73 L8.26227388,34.4901268 Z"></path></g><path d="M72.379769,51.7233675 C71.5077737,51.2620302 70.5086201,51 69.4466684,51 C66.0464589,51 63.2900445,53.6862915 63.2900445,57 C63.2900445,58.3524891 63.749225,59.6004592 64.5239446,60.6039231 C63.0651901,63.0083834 62.0695832,65.5346814 61.7432388,68.1317726 C56.6870351,68.1317726 38.2335803,49 56.6167901,31 C75,13 101.566014,38.6959598 93.5831606,40.1945268 C88.9934286,41.0561261 79.7498479,45.4379083 72.3797716,51.7233656 Z" id="Hair" fill="rgb(178, 150, 125)"></path></g></g><g id="bottom" transform="translate(0.000000, 187.000000)"><g id="Bottom/Standing/Baggy-Pants" stroke="none" stroke-width="1" fill="none" fill-rule="evenodd"><polygon id="Leg" fill="rgb(0, 0, 0)" points="134 0 183.081639 124.226909 216.000898 229.25029 229 229.25029 178.673688 5.090379e-13"></polygon><path d="M124.116628,0 C123.593979,43.6541888 115.971833,102.427468 114.754071,105.148648 C113.942229,106.962768 85.9161573,130.032465 30.6758546,174.357739 L39.6290713,183.938736 C104.807511,145.935376 138.9048,124.399339 141.920937,119.330628 C146.445143,111.72756 161.1744,41.763137 173,0 L124.116628,0 Z" id="Leg" fill="rgb(0, 0, 0)"></path><g id="Accessories/Shoe/Flat-Sneaker" transform="translate(51.500000, 189.000000) rotate(50.000000) translate(-51.500000, -189.000000) translate(21.000000, 169.000000)" fill="#E4E4E4"><path d="M2.67813181,25.4019242 C1.55937727,28.3884109 1,30.6229931 1,32.1056708 C1,33.908957 1.3004142,36.5404001 1.90124261,40 C3.99318117,40 22.7937852,40 58.3030548,40 C59.768738,35.1545073 58.9226607,32.5385816 55.7648228,32.1522232 C52.606985,31.7658647 49.9837155,31.4170139 47.8950143,31.1056708 L21.6799926,19.4188835 C21.1755635,19.1940064 20.584344,19.4206282 20.359467,19.9250573 C20.35562,19.9336867 20.3518954,19.9423702 20.3482945,19.9511052 L18.6632131,24.038695 C15.7398812,25.4026522 13.3643706,26.0846307 11.5366811,26.0846307 C10.0517269,26.0846307 8.00099246,25.4849054 5.38447792,24.2854549 L5.38448339,24.285443 C4.38038273,23.8251478 3.19325534,24.2659892 2.73296014,25.2700899 C2.71312074,25.3133681 2.69483298,25.3573409 2.67813181,25.4019242 Z" id="shoe"></path></g><g id="Accessories/Shoe/Flat-Sneaker" transform="translate(208.000000, 199.000000)" fill="#E4E4E4"><path d="M2.67813181,25.4019242 C1.55937727,28.3884109 1,30.6229931 1,32.1056708 C1,33.908957 1.3004142,36.5404001 1.90124261,40 C3.99318117,40 22.7937852,40 58.3030548,40 C59.768738,35.1545073 58.9226607,32.5385816 55.7648228,32.1522232 C52.606985,31.7658647 49.9837155,31.4170139 47.8950143,31.1056708 L21.6799926,19.4188835 C21.1755635,19.1940064 20.584344,19.4206282 20.359467,19.9250573 C20.35562,19.9336867 20.3518954,19.9423702 20.3482945,19.9511052 L18.6632131,24.038695 C15.7398812,25.4026522 13.3643706,26.0846307 11.5366811,26.0846307 C10.0517269,26.0846307 8.00099246,25.4849054 5.38447792,24.2854549 L5.38448339,24.285443 C4.38038273,23.8251478 3.19325534,24.2659892 2.73296014,25.2700899 C2.71312074,25.3133681 2.69483298,25.3573409 2.67813181,25.4019242 Z" id="shoe"></path></g><polygon id="Pant" fill="#69A1AC" points="167 218.432889 228.804464 211.725327 183 2.84217094e-14 127.644073 2.84217094e-14"></polygon><path d="M43.4599581,158.900479 L84,206.885961 C126.699953,160.249961 151.594137,129.819963 158.682552,115.595966 C165.770967,101.37197 172.143091,62.839981 177.798925,0 L115.478146,0 C112.388642,55.2838742 110.306102,84.2121259 109.230525,86.7847551 C108.154948,89.3573843 86.2314253,113.395959 43.4599581,158.900479 Z" id="Pant" fill="#89C5CC"></path></g></g><g id="torso" transform="translate(22.000000, 82.000000)"><g id="Body/Pregnant" stroke="none" stroke-width="1" fill="none" fill-rule="evenodd"><path d="M111.093239,2.28693343 C111.326698,1.52679592 111.563732,0.764490814 111.80423,9.9475983e-14 L112.692183,0.417788314 C112.830751,0.274814904 112.970357,0.135528873 113.111009,-8.52651283e-14 L141.101479,4.32798224 C141.101479,20.0687681 153.625725,34.7964415 161.54868,47.4680378 C173.864991,67.1661596 195.780651,88.999709 181.72922,118.263682 C169.06816,144.632022 136.088855,148.914077 82.7913029,131.10985 C82.7913029,116.907461 94.4646183,102.629645 94.8366189,85.3605479 C95.1907472,68.9211259 98.2646207,19.1125342 111.093239,2.28693343 Z" id="Shirt" fill="#C1DEE2"></path><path d="M145.863007,110.787221 C147.734877,101.126929 148.949202,94.6776016 149.505985,91.4392393 C164.417959,108.29011 173.032716,116.813278 175.350255,117.008742 C179.708836,117.37635 182.929474,113.51125 183.84651,114.597847 C185.362212,119.097853 181.081226,130.362106 172.89821,132 C168.990655,132.782127 162.94394,124.724092 160.45259,121.868948 C159.4727,120.745971 154.609505,117.052062 145.863007,110.787221 Z M171.62123,59.2823205 C175.486784,59.2823205 177.563178,60.8804131 179.848781,64.1046411 C182.134384,67.328869 184.297191,82.5350373 180.6276,82.5350373 C176.958008,82.5350373 161.583419,76.656821 161.583419,72.7050102 C161.583419,68.7531993 172.074145,67.079644 172.074145,64.1046411 C172.074145,61.1296381 167.755676,59.2823205 171.62123,59.2823205 Z" id="Skin" fill="rgb(0, 0, 0)"></path><path d="M138.059083,125.487626 C137.829455,126.309648 137.595361,127.147106 137.356799,128 C93.560817,97.3905148 93.5398055,60.2964284 106.564993,18.7185807 C96.7475495,59.6508736 100.747151,94.1732973 138.059083,125.487626 Z" id="Shade" fill-opacity="0.2" fill="#000000"></path></g></g></svg>