<svg height="100%" width="100%" version="1.1" viewBox="0 -25 380 480" xmlns="http://www.w3.org/2000/svg"><g id="head" transform="translate(82.000000, 0.000000)"><g id="Head/Front/Pony" stroke="none" stroke-width="1" fill="none" fill-rule="evenodd"><g id="Head" transform="translate(54.000000, 31.000000)" fill="rgb(236, 248, 248)"><path d="M8.26227388,34.4901268 C3.65436435,29.0813759 0.535634794,22.4528771 1.05677633,15.0254539 C2.55833022,-6.37502057 32.3485306,-1.66718886 38.1433414,9.13393292 C43.9381521,19.9350547 43.249578,47.3329958 35.7603014,49.2634576 C32.7735882,50.033323 26.4110012,48.1474609 19.935372,44.244306 L24,73 L0,73 L8.26227388,34.4901268 Z"></path></g><path d="M70.5687217,63.9853286 C67.5926236,69.6979779 63.4765087,74 59.3643383,74 C51.5536227,74 46,63.5572795 46,52.3295687 C46,51.9350856 46.0078163,51.5432268 46.0232386,51.1542949 C37.7608945,56.8241057 31.3932077,68 20.4607455,68 C5.58722916,68 -0.31966425,38 20.4607455,38 C34.593003,38 41.5445762,40.0604811 47.5354741,43.1074469 C48.7170741,39.7763359 50.5188193,36.9756887 52.7219959,35.0199012 C53.2520171,34.4232542 54.0645989,33.8524026 55.1129199,33.3231942 C55.7538221,32.972543 56.4170423,32.6869516 57.098675,32.4720339 C60.7117049,31.1442871 65.9449543,30.2077896 71.790603,30.003655 C72.8821722,29.9655366 73.9542211,29.9543821 75.0000488,29.9684338 C75.0170696,24.4601029 79.4876784,20 85,20 C90.5228475,20 95,24.4771525 95,30 C95,35.3410915 90.8126832,39.7041827 85.5417481,39.9855753 C82.5265081,40.9159529 78.6524637,41.5990548 74.3561881,41.8871153 C74.7733127,43.4557543 75,45.2377873 75,47.2515622 C75,49.0297049 74.8037398,50.9155223 74.4423579,52.830311 C73.5105469,51.7227516 72.2646032,51 71,51 C67.4624339,51 65,53.9101491 65,57 C65,60.9215044 67.2638886,63.7584261 70.5687217,63.9853286 Z" id="Hair" fill="rgb(238, 228, 225)"></path></g></g><g id="bottom" transform="translate(0.000000, 187.000000)"><g id="Bottom/Standing/Baggy-Pants" stroke="none" stroke-width="1" fill="none" fill-rule="evenodd"><polygon id="Leg" fill="rgb(236, 248, 248)" points="134 0 183.081639 124.226909 216.000898 229.25029 229 229.25029 178.673688 5.090379e-13"></polygon><path d="M124.116628,0 C123.593979,43.6541888 115.971833,102.427468 114.754071,105.148648 C113.942229,106.962768 85.9161573,130.032465 30.6758546,174.357739 L39.6290713,183.938736 C104.807511,145.935376 138.9048,124.399339 141.920937,119.330628 C146.445143,111.72756 161.1744,41.763137 173,0 L124.116628,0 Z" id="Leg" fill="rgb(236, 248, 248)"></path><g id="Accessories/Shoe/Flat-Sneaker" transform="translate(51.500000, 189.000000) rotate(50.000000) translate(-51.500000, -189.000000) translate(21.000000, 169.000000)" fill="#E4E4E4"><path d="M2.67813181,25.4019242 C1.55937727,28.3884109 1,30.6229931 1,32.1056708 C1,33.908957 1.3004142,36.5404001 1.90124261,40 C3.99318117,40 22.7937852,40 58.3030548,40 C59.768738,35.1545073 58.9226607,32.5385816 55.7648228,32.1522232 C52.606985,31.7658647 49.9837155,31.4170139 47.8950143,31.1056708 L21.6799926,19.4188835 C21.1755635,19.1940064 20.584344,19.4206282 20.359467,19.9250573 C20.35562,19.9336867 20.3518954,19.9423702 20.3482945,19.9511052 L18.6632131,24.038695 C15.7398812,25.4026522 13.3643706,26.0846307 11.5366811,26.0846307 C10.0517269,26.0846307 8.00099246,25.4849054 5.38447792,24.2854549 L5.38448339,24.285443 C4.38038273,23.8251478 3.19325534,24.2659892 2.73296014,25.2700899 C2.71312074,25.3133681 2.69483298,25.3573409 2.67813181,25.4019242 Z" id="shoe"></path></g><g id="Accessories/Shoe/Flat-Sneaker" transform="translate(208.000000, 199.000000)" fill="#E4E4E4"><path d="M2.67813181,25.4019242 C1.55937727,28.3884109 1,30.6229931 1,32.1056708 C1,33.908957 1.3004142,36.5404001 1.90124261,40 C3.99318117,40 22.7937852,40 58.3030548,40 C59.768738,35.1545073 58.9226607,32.5385816 55.7648228,32.1522232 C52.606985,31.7658647 49.9837155,31.4170139 47.8950143,31.1056708 L21.6799926,19.4188835 C21.1755635,19.1940064 20.584344,19.4206282 20.359467,19.9250573 C20.35562,19.9336867 20.3518954,19.9423702 20.3482945,19.9511052 L18.6632131,24.038695 C15.7398812,25.4026522 13.3643706,26.0846307 11.5366811,26.0846307 C10.0517269,26.0846307 8.00099246,25.4849054 5.38447792,24.2854549 L5.38448339,24.285443 C4.38038273,23.8251478 3.19325534,24.2659892 2.73296014,25.2700899 C2.71312074,25.3133681 2.69483298,25.3573409 2.67813181,25.4019242 Z" id="shoe"></path></g><polygon id="Pant" fill="#69A1AC" points="167 218.432889 228.804464 211.725327 183 2.84217094e-14 127.644073 2.84217094e-14"></polygon><path d="M43.4599581,158.900479 L84,206.885961 C126.699953,160.249961 151.594137,129.819963 158.682552,115.595966 C165.770967,101.37197 172.143091,62.839981 177.798925,0 L115.478146,0 C112.388642,55.2838742 110.306102,84.2121259 109.230525,86.7847551 C108.154948,89.3573843 86.2314253,113.395959 43.4599581,158.900479 Z" id="Pant" fill="#89C5CC"></path></g></g><g id="torso" transform="translate(22.000000, 82.000000)"><g id="Body/Long-Sleeve" stroke="none" stroke-width="1" fill="none" fill-rule="evenodd"><path d="M192,65.3107899 L231.482876,59.9251648 C239.381053,55.5320264 246.646993,52.5579486 253.280695,51.0029313 C255.147488,50.9484265 258.117196,51.6270536 253.693154,55.3151968 C249.269111,59.00334 244.780296,63.0831966 245.568527,65.0514942 C246.356757,67.0197919 250.471061,66.2874533 251.152638,69.3148625 C251.607023,71.3331352 244.929759,71.6610844 231.120845,70.2987101 L199.083874,83 L192,65.3107899 Z M67.9697919,74.4496834 L89.8671837,74.5318631 C65.8560993,128.56567 53.3363474,156.856914 52.3079281,159.405597 C49.9939846,165.140133 54.8906002,173.873732 56.9845874,178.567103 C50.1645409,181.61887 50.8912241,170.316929 42.2879189,174.319492 C34.4352209,177.972846 28.4616931,184.59248 19.3890352,178.994371 C18.2736052,178.306117 17.0512757,175.714714 20.0045784,173.68967 C27.3623323,168.644547 37.9653015,159.814672 39.3979297,156.908251 C41.3515741,152.944826 50.8755281,125.458637 67.9697919,74.4496834 Z" id="Skin" fill="rgb(236, 248, 248)"></path><path d="M123.473568,9.66927317 L140.652814,9.31280705 C148.188654,47.0006412 173.203746,69.0336905 223.790464,56.4079457 L234.893349,104.819132 C187.489073,115.210412 143.760505,99.6935282 130.595778,48.4746485 C127.187846,35.2156986 124.201379,21.3681777 123.473568,9.66927317 Z" id="Clothes-Back" fill="#AFB9C5" transform="translate(179.183459, 58.591470) rotate(5.000000) translate(-179.183459, -58.591470) "></path><path d="M119.490817,0.0159395536 L145.467604,5.96527657 C145.467604,50.6444246 159.700025,79.150459 167,112 L96.8436541,112 C95.8553795,123.350899 95.2484887,135.017565 94.9322404,147 L42.4016357,147 C54.3053653,83.6639633 79.4301113,34.6639633 117.775873,0 L119.477154,0 L119.490817,0.0159395536 Z" id="Clothes" fill="#C5CFD6"></path><path d="M107.912453,48.2592493 C106.104463,76.1005287 107.167794,97.3474456 111.102445,112 L96.8436541,112 C98.8014235,89.5139021 102.255877,68.2669888 107.91245,48.25926 Z" id="Shade" fill-opacity="0.1" fill="#000000"></path></g></g></svg>